<?xml version="1.0" encoding="UTF-8"?>
<!DOCTYPE svg PUBLIC "-//W3C//DTD SVG 1.1//EN" "http://www.w3.org/Graphics/SVG/1.1/DTD/svg11.dtd">
<!-- Creator: CorelDRAW X7 -->
<svg xmlns="http://www.w3.org/2000/svg" xml:space="preserve" width="175mm" height="168mm" version="1.1" style="shape-rendering:geometricPrecision; text-rendering:geometricPrecision; image-rendering:optimizeQuality; fill-rule:evenodd; clip-rule:evenodd"
viewBox="0 0 17500 16800"
 xmlns:xlink="http://www.w3.org/1999/xlink">
 <defs>
  <style type="text/css">
   <![CDATA[
    .fil23 {fill:#FEFEFE}
    .fil22 {fill:#FBE2DE}
    .fil4 {fill:#F29D90}
    .fil5 {fill:#E73E53}
    .fil6 {fill:#FBFCFC}
    .fil1 {fill:#DFE7F5}
    .fil21 {fill:#DFE7F5}
    .fil20 {fill:#D2CDE6}
    .fil0 {fill:#D2CDE6}
    .fil3 {fill:#C7CEE8}
    .fil2 {fill:#B7BEE0}
    .fil19 {fill:#B7BEE0}
    .fil8 {fill:#63549F}
    .fil7 {fill:#562E89}
    .fil10 {fill:#191847}
    .fil13 {fill:#69A1AC}
    .fil14 {fill:#89C5CC}
    .fil11 {fill:#997659}
    .fil9 {fill:#B28B67}
    .fil16 {fill:#DDE3E9}
    .fil12 {fill:#E4E4E4}
    .fil15 {fill:#E87613}
    .fil17 {fill:#FF9B21}
    .fil18 {fill:black;fill-opacity:0.101961}
   ]]>
  </style>
 </defs>
 <g id="Layer_x0020_1">
  <metadata id="CorelCorpID_0Corel-Layer"/>
  <g id="_2469058996624">
   <path class="fil0" d="M4005 4579c-1675,2418 803,4067 -1020,5023 -1594,836 -3678,3364 -1750,5534 2216,2495 4721,93 6906,795 453,145 4055,2102 4874,-425 199,-2993 -2164,-3079 -599,-4840 1531,-1723 1336,-4915 -188,-6731 -2619,-2358 -5637,-3087 -8223,644z"/>
   <polygon class="fil1" points="6182,10423 6597,10990 7706,9519 8340,9866 10234,7683 11161,8122 12794,5609 13552,6098 13711,3880 11743,4361 12152,5053 10642,7090 9886,6964 8266,8874 7377,8749 "/>
   <g>
    <path class="fil2" d="M3056 13671c-407,-1213 -431,-1804 -345,-2166 86,-362 -318,-761 -394,-173 -77,589 -231,61 0,-705 230,-766 -96,-1869 -285,-1299 -189,571 131,2275 -342,1327 -474,-948 -1203,-2454 -1575,-1931 -371,523 1685,2154 1220,2048 -465,-105 -1580,-373 -517,203 320,174 742,188 910,291 388,239 382,525 72,478 -443,-66 -1595,-425 -610,298 986,724 961,-1091 1607,1589l259 40z"/>
    <path class="fil3" d="M1641 10820c-5,0 -10,-2 -12,-7 -283,-611 -1306,-1940 -1317,-1954 -4,-5 -3,-13 3,-18 5,-4 13,-3 18,3 10,13 1035,1345 1319,1958 3,6 1,14 -6,17 -2,1 -4,1 -5,1z"/>
    <path class="fil3" d="M1972 11211c-3,0 -6,-1 -8,-3 -6,-4 -7,-13 -3,-18 257,-331 217,-1652 216,-1665 0,-7 6,-13 13,-13 8,-1 13,5 13,12 2,55 41,1343 -221,1682 -3,3 -6,5 -10,5z"/>
    <path class="fil3" d="M1635 11070c-305,0 -911,-231 -937,-241 -7,-3 -10,-10 -8,-17 3,-7 10,-10 17,-7 6,2 628,239 928,239 2,0 3,0 6,0 7,0 12,5 13,13 0,7 -6,13 -13,13 -2,0 -4,0 -6,0z"/>
    <path class="fil3" d="M1788 11980c-376,0 -729,-204 -733,-207 -7,-3 -9,-11 -5,-18 4,-6 11,-8 18,-4 6,4 693,400 1158,76 6,-4 14,-3 18,3 4,6 3,14 -3,18 -140,97 -298,132 -453,132z"/>
    <path class="fil3" d="M2595 12460c-5,0 -10,-4 -12,-9 -258,-852 -86,-1140 -78,-1152 4,-6 11,-8 18,-4 6,4 7,12 4,18 -2,3 -173,292 81,1130 2,7 -2,14 -9,16 -1,1 -2,1 -4,1z"/>
    <path class="fil4" d="M3811 11059c-175,-283 -344,-660 -523,-1059 -439,-982 -986,-2204 -1953,-2672l23 -46c983,476 1535,1707 1978,2697 177,397 346,772 519,1053l-44 27z"/>
    <path class="fil4" d="M1424 7359c-157,-75 -341,-100 -514,-86 -99,8 -192,37 -283,75 -67,28 -140,30 -204,-8 -151,-91 -127,-325 40,-383 78,-27 178,-9 258,1 108,14 218,45 318,91 80,37 157,80 228,133 45,33 88,69 128,108 15,15 30,31 44,47 9,11 1,28 -15,22z"/>
    <path class="fil5" d="M1270 7274c-2,0 -4,-1 -6,-2 -448,-244 -811,-112 -815,-111 -6,3 -14,-1 -16,-7 -3,-7 1,-15 7,-17 4,-2 378,-137 836,112 7,4 9,11 6,18 -3,4 -7,7 -12,7z"/>
    <path class="fil4" d="M2018 7792c-155,-33 -323,-16 -472,33 -83,27 -158,70 -228,121 -54,41 -116,62 -184,42 -159,-47 -186,-269 -42,-352 63,-36 149,-41 219,-49 95,-10 194,-6 289,11 83,14 164,39 242,71 46,20 92,42 135,69 17,10 33,20 49,32 11,8 7,24 -8,22z"/>
    <path class="fil5" d="M1130 7842c-4,0 -8,-2 -10,-5 -5,-6 -3,-14 3,-18 2,-2 267,-189 694,-132 7,1 12,8 11,15 -1,7 -7,12 -14,11 -418,-56 -674,125 -676,127 -3,1 -5,2 -8,2z"/>
    <path class="fil4" d="M2565 8523c-54,-160 -60,-341 -36,-507 15,-105 44,-210 88,-307 31,-68 64,-152 119,-206 124,-122 340,-45 360,127 9,80 -29,155 -93,201 -76,54 -142,114 -202,186 -62,75 -111,166 -146,256 -22,56 -40,113 -52,171 -5,22 -9,44 -11,66 -2,12 -19,38 -27,13z"/>
    <path class="fil5" d="M2595 8338c0,0 0,0 -1,0 -7,-1 -12,-7 -12,-14 51,-538 291,-697 301,-704 6,-4 14,-2 18,4 4,6 2,14 -4,18 -2,2 -240,160 -289,684 0,7 -6,12 -13,12z"/>
    <path class="fil4" d="M2706 8752c-104,-85 -238,-141 -368,-170 -83,-18 -169,-27 -254,-21 -59,4 -132,5 -187,30 -126,58 -130,241 -7,304 57,30 123,23 176,-12 62,-41 125,-74 195,-98 74,-25 156,-35 233,-36 47,-1 95,2 142,10 17,2 35,5 52,10 10,2 34,-4 18,-17z"/>
    <path class="fil5" d="M1914 8775c-5,0 -10,-3 -12,-8 -3,-7 0,-14 7,-17 13,-5 320,-128 561,-69 7,1 11,8 9,15 -2,7 -8,12 -16,10 -232,-57 -541,67 -544,68 -2,1 -3,1 -5,1z"/>
    <path class="fil1" d="M5927 11695c-498,492 -1279,948 -814,2022l-612 -32 -52 -3 -364 -19c-1036,-2402 -1974,-3154 -1154,-3455 819,-300 1515,1186 819,-300 -515,-1101 -785,-1795 -179,-2012 605,-217 939,876 939,-141 0,-350 80,-977 887,-777 808,200 -445,1854 457,1628 902,-226 1082,-47 779,327 -303,374 -1713,1557 -365,1353 1348,-204 158,916 -341,1409z"/>
    <path class="fil6" d="M6144 10828c-18,11 -1716,1069 -1734,1962 16,294 45,593 91,895l-52 -3c-6,-40 -12,-80 -18,-120 -1,1 -3,2 -5,2 -2,1 -4,1 -5,1 -12,0 -23,-8 -26,-21 -125,-595 -1059,-1795 -1068,-1807 -9,-11 -7,-28 4,-37 11,-8 28,-6 36,5 37,46 834,1072 1044,1701 -8,-67 -16,-135 -22,-202 0,0 -1,-1 -1,-2 -382,-1702 -1493,-2682 -1504,-2691 -11,-10 -12,-26 -3,-37 10,-11 26,-12 37,-2 11,9 1009,889 1447,2430 -2,-29 -4,-57 -6,-85 -1,-3 -1,-5 -1,-8 0,-5 0,-12 0,-18 -13,-252 -16,-502 -11,-746 -2,-3 -3,-6 -4,-10 -107,-676 -794,-1396 -800,-1403 -10,-11 -10,-27 0,-37 11,-10 27,-10 37,1 26,27 591,620 773,1249 2,-35 3,-70 5,-105 -7,-6 -10,-17 -8,-27 4,-10 7,-21 11,-32 9,-158 21,-314 35,-468 -1,-3 -2,-7 -1,-11 1,-4 2,-7 3,-10 14,-154 31,-305 50,-453 0,-1 0,-1 0,-2 -32,-700 -831,-1834 -839,-1845 -8,-12 -6,-28 6,-36 12,-9 28,-6 36,6 30,43 686,973 824,1679 5,-35 10,-70 15,-104 0,-2 0,-3 0,-4 3,-31 9,-61 15,-91 6,-38 11,-76 17,-114 0,0 0,-1 0,-1 9,-1090 -900,-1881 -909,-1889 -11,-9 -12,-26 -3,-36 10,-11 26,-12 37,-3 8,7 809,704 915,1696 47,-269 98,-523 148,-763 -11,-286 -357,-692 -361,-696 -9,-11 -8,-27 3,-36 11,-10 27,-8 37,2 12,15 269,317 349,594 24,-111 47,-219 69,-323 25,-113 48,-222 70,-326 54,-253 -185,-1027 -187,-1034 -4,-14 4,-29 17,-33 14,-4 28,3 33,17 7,25 147,479 186,810 65,-323 107,-592 109,-802 0,-14 13,-25 26,-26 14,0 26,12 26,26 -3,295 -83,698 -191,1201 220,-322 499,-980 503,-988 5,-13 20,-19 34,-13 13,5 19,20 13,33 -14,34 -346,816 -576,1089 -4,19 -8,38 -12,57 -36,167 -74,344 -113,530 201,-331 550,-606 567,-619 11,-9 28,-7 37,4 8,12 6,28 -5,37 -5,3 -485,381 -638,771 -32,165 -65,336 -96,513 283,-625 935,-1105 969,-1129 11,-8 28,-6 36,6 8,11 6,28 -6,36 -9,7 -902,663 -1053,1419 -28,178 -53,362 -76,550 379,-1095 1419,-2000 1430,-2009 11,-10 27,-9 37,2 9,11 8,27 -3,37 -12,10 -1224,1065 -1495,2267 -2,20 -4,40 -6,60 231,-466 929,-1185 961,-1217 10,-10 26,-11 37,-1 10,10 10,26 0,37 -8,8 -844,867 -996,1309 -2,7 -7,12 -13,15 -4,46 -7,93 -11,140 319,-604 1272,-1054 1316,-1074 13,-6 29,-1 35,12 6,13 0,29 -13,35 -11,5 -1117,527 -1347,1176 -14,277 -19,560 -12,848 263,-849 1651,-1715 1716,-1755 13,-8 29,-4 36,8 8,12 4,28 -8,36z"/>
    <path class="fil7" d="M2262 13380c0,0 -411,1794 1882,1625 0,0 1551,17 1472,-1625l-3354 0z"/>
    <path class="fil8" d="M5092 13706l-259 0 0 -260 259 0 0 260zm0 339l-259 0 0 -260 259 0 0 260zm0 339l-259 0 0 -259 259 0 0 259zm-339 -678l-259 0 0 -260 259 0 0 260zm0 339l-259 0 0 -260 259 0 0 260zm0 339l-259 0 0 -259 259 0 0 259zm0 340l-259 0 0 -260 259 0 0 260zm-339 -1018l-260 0 0 -260 260 0 0 260zm0 339l-260 0 0 -260 260 0 0 260zm0 339l-260 0 0 -259 260 0 0 259zm0 340l-260 0 0 -260 260 0 0 260zm-340 -1018l-259 0 0 -260 259 0 0 260zm0 339l-259 0 0 -260 259 0 0 260zm0 339l-259 0 0 -259 259 0 0 259zm0 340l-259 0 0 -260 259 0 0 260zm-339 -1018l-259 0 0 -260 259 0 0 260zm0 339l-259 0 0 -260 259 0 0 260zm0 339l-259 0 0 -259 259 0 0 259zm0 340l-259 0 0 -260 259 0 0 260zm-339 -1018l-260 0 0 -260 260 0 0 260zm0 339l-260 0 0 -260 260 0 0 260zm0 339l-260 0 0 -259 260 0 0 259zm0 340l-260 0 0 -260 260 0 0 260zm-340 -1018l-259 0 0 -260 259 0 0 260zm0 339l-259 0 0 -260 259 0 0 260zm0 339l-259 0 0 -259 259 0 0 259zm0 340l-259 0 0 -260 259 0 0 260zm-339 -1018l-259 0 0 -260 259 0 0 260zm0 339l-259 0 0 -260 259 0 0 260zm0 339l-259 0 0 -259 259 0 0 259zm2455 -599l260 0 0 260 -260 0 0 -260zm0 -339l260 0 0 260 -260 0 0 -260zm260 679l0 179c29,-53 56,-110 80,-171l0 -8 3 0c10,-26 19,-53 27,-80l-30 0 0 -260 87 0c4,-26 7,-52 10,-79l-97 0 0 -260 106 0c-1,-22 -1,-44 -2,-66l-3354 0c0,0 -5,24 -12,66l128 0 0 260 -144 0c0,25 1,52 2,79l142 0 0 260 -104 0c6,26 13,53 21,80l83 0 0 204c23,46 51,91 82,135l257 0 0 258c40,28 84,56 130,81l209 0 0 94c26,9 53,17 80,26l0 -120 260 0 0 179c26,4 52,8 80,12l0 -191 259 0 0 211c26,1 53,1 80,2l0 -213 259 0 0 206c24,-1 47,-2 70,-4 0,0 4,0 10,0l0 -202 260 0 0 174c25,-5 52,-10 80,-16l0 -158 259 0 0 78c27,-11 53,-22 80,-35l0 -43 86 0c43,-23 87,-50 130,-79l-216 0 0 -260 259 0 0 228c28,-20 54,-42 80,-65l0 -163 154 0c19,-25 39,-52 57,-80l-211 0 0 -259 260 0z"/>
   </g>
   <g id="humaaans_x002f_standing-19">
    <g id="humaaan-3">
     <g id="Head_x002f_Front_x002f_Short-Beard">
      <g id="Head">
       <path class="fil9" d="M6792 4524c-167,-114 -302,-272 -343,-480 -115,-598 744,-690 984,-437 240,253 422,1010 229,1119 -77,43 -267,39 -475,-20l324 758 -665 178 -54 -1118z"/>
      </g>
      <path id="Hair" class="fil10" d="M7023 3960c119,344 234,502 343,472 163,-43 275,-184 346,-203 53,-14 59,54 37,112 -18,47 -147,123 -131,184 17,62 114,-15 124,21 16,61 66,169 -40,197 -107,29 -424,73 -519,-71 -61,-92 -140,-297 -235,-614 -7,1 -14,2 -21,4 -91,25 -146,118 -122,209 13,46 43,83 82,105 -24,64 -52,131 -86,203 -215,-61 -439,-347 -341,-706 10,-165 101,-276 225,-350 97,-74 208,-109 310,-108 191,-34 373,-22 429,-1 47,175 26,236 -267,309 -62,57 -100,137 -134,237z"/>
     </g>
     <g id="Bottom_x002f_Standing_x002f_Baggy-Pants">
      <polygon id="Leg" class="fil11" points="7170,7956 8577,11503 9520,14501 9893,14501 8450,7956 "/>
      <path id="Leg_0" class="fil9" d="M6887 7956c-15,1246 -234,2924 -269,3002 -23,52 -826,710 -2409,1976l256 273c1868,-1085 2846,-1699 2932,-1844 130,-217 552,-2215 891,-3407l-1401 0z"/>
      <g id="Accessories_x002f_Shoe_x002f_Flat-Sneaker">
       <path id="shoe" class="fil12" d="M4173 12842c-87,30 -146,59 -178,87 -40,33 -92,88 -157,165 38,46 385,459 1039,1238 133,-57 175,-124 125,-200 -49,-77 -90,-141 -122,-192l-226 -791c-4,-15 -20,-24 -35,-20 -1,0 -1,0 -1,1l-121 38c-84,-39 -142,-79 -176,-119 -28,-33 -52,-89 -74,-168l0 0c-8,-31 -40,-49 -70,-40 -2,0 -3,1 -4,1z"/>
      </g>
      <g id="Accessories_x002f_Shoe_x002f_Flat-Sneaker_1">
       <path id="shoe_2" class="fil12" d="M9368 14365c-33,86 -49,150 -49,193 0,51 9,127 26,226 60,0 599,0 1617,0 42,-139 18,-214 -73,-225 -90,-11 -166,-21 -226,-30l-751 -335c-14,-7 -31,0 -38,14 0,1 0,1 0,1l-48 117c-84,39 -152,59 -205,59 -42,0 -101,-17 -176,-52l0 0c-29,-13 -63,0 -76,29 0,1 -1,2 -1,3z"/>
      </g>
      <polygon id="Pant" class="fil13" points="8116,14192 9887,14001 8574,7956 6988,7956 "/>
      <path id="Pant_3" class="fil14" d="M4575 12493l1162 1370c1224,-1332 1937,-2201 2140,-2607 204,-406 386,-1506 548,-3300l-1786 0c-88,1578 -148,2404 -179,2478 -31,73 -659,759 -1885,2059z"/>
     </g>
     <g id="Body_x002f_Hoodie">
      <path id="Skin" class="fil9" d="M9364 7298l1016 500c256,22 474,68 655,136 45,29 105,91 -58,107 -163,16 -333,41 -346,99 -12,58 96,106 65,188 -22,54 -184,-44 -488,-294l-957 -211 113 -525zm-3453 633l590 -102c-158,1234 -245,1889 -261,1966 -37,173 144,394 227,515 -178,120 -213,-201 -436,-46 -204,142 -339,357 -623,245 -35,-14 -82,-80 -9,-152 183,-178 438,-479 464,-568 36,-121 52,-740 48,-1858z"/>
      <path id="Coat-Back" class="fil15" d="M7153 5172l237 -84c1043,618 1678,2048 2928,2645l-209 376c-1968,103 -2767,-1637 -2956,-2937z"/>
      <path id="Shirt" class="fil16" d="M6627 8412c979,-173 1699,-300 2160,-381 98,-17 55,-156 28,-225 -310,-797 -1110,-1573 -1317,-2749l-640 13c-370,915 -369,1962 -231,3342z"/>
      <path id="Coat-Front" class="fil17" d="M6223 6018c-95,-10 -177,-58 -247,-144 -300,-368 -257,-608 -27,-725 230,-117 474,-2 862,-71 21,-4 41,-6 59,-6l197 -23c892,1788 1268,3019 1128,3695l-1699 299c-60,252 -122,465 -185,641l-464 82c-290,-1395 -165,-2644 376,-3748z"/>
      <path id="Shade" class="fil18" d="M6695 8009c132,436 276,743 431,923l-630 111c69,-293 135,-638 199,-1034z"/>
     </g>
    </g>
   </g>
   <path class="fil19" d="M17389 41l-3111 2368c0,0 19,933 41,1007 23,73 84,142 195,65 111,-77 647,-643 647,-643l2228 -2797z"/>
   <path class="fil20" d="M17414 22c-12,6 -2310,2200 -2583,2564 -250,332 -427,927 -427,927 0,0 80,70 356,-195 558,-535 2659,-3307 2659,-3307l-5 11z"/>
   <path class="fil21" d="M14294 2411c0,0 -325,-204 -506,-282 -180,-78 -185,-135 -142,-188 15,-17 3695,-1895 3773,-1930 77,-35 -281,640 -363,763 -82,122 -1360,2432 -1360,2432 0,0 -823,-567 -865,-620l2474 -2461 -3027 2284 16 2z"/>
   <g>
    <path class="fil22" d="M9050 4550c145,-444 432,-856 760,-1185 206,-208 443,-394 700,-536 182,-100 395,-233 605,-261 476,-66 829,462 588,877 -111,192 -317,296 -536,292 -259,-5 -504,17 -756,79 -263,64 -520,186 -748,328 -140,87 -274,185 -397,293 -46,41 -92,83 -135,128 -24,26 -105,53 -81,-15z"/>
    <path class="fil23" d="M9424 4189c0,-1 -1,-1 -2,-2 -15,-13 -16,-36 -3,-51 1001,-1111 1797,-1066 1830,-1064 20,1 35,18 33,38 -1,20 -18,35 -38,33 -8,0 -797,-41 -1772,1041 -12,14 -33,16 -48,5z"/>
   </g>
  </g>
 </g>
</svg>
