<?xml version="1.0" encoding="UTF-8"?>
<!DOCTYPE svg PUBLIC "-//W3C//DTD SVG 1.1//EN" "http://www.w3.org/Graphics/SVG/1.1/DTD/svg11.dtd">
<!-- Creator: CorelDRAW X7 -->
<svg xmlns="http://www.w3.org/2000/svg" xml:space="preserve" width="180mm" height="215mm" version="1.1" style="shape-rendering:geometricPrecision; text-rendering:geometricPrecision; image-rendering:optimizeQuality; fill-rule:evenodd; clip-rule:evenodd"
viewBox="0 0 18000 21500"
 xmlns:xlink="http://www.w3.org/1999/xlink">
 <defs>
  <style type="text/css">
   <![CDATA[
    .fil7 {fill:#474443}
    .fil6 {fill:#BBC99A}
    .fil5 {fill:#D9E483}
    .fil2 {fill:#415A6B}
    .fil0 {fill:#E8EAE9}
    .fil4 {fill:#F3F3F3}
    .fil1 {fill:#F7B64C}
    .fil3 {fill:#FFD15C}
   ]]>
  </style>
 </defs>
 <g id="Layer_x0020_1">
  <metadata id="CorelCorpID_0Corel-Layer"/>
  <polygon class="fil0" points="9000,13288 9000,21250 6200,12500 "/>
  <rect class="fil1" x="6900" y="9875" width="4200" height="3938"/>
  <path class="fil2" d="M9000 250l0 0c-2231,0 -4025,1794 -4025,4025l0 2100c0,2144 1750,3850 3850,3850l306 0c2144,0 3850,-1750 3850,-3850l0 -2100c44,-2231 -1750,-4025 -3981,-4025z"/>
  <path class="fil3" d="M10137 3356c-918,2013 -3762,2494 -4637,2581l0 2144c0,1925 1575,3500 3500,3500 1925,0 3500,-1575 3500,-3500l0 -2537c-1794,-438 -2363,-2188 -2363,-2188z"/>
  <polygon class="fil4" points="6900,11275 9000,13288 7600,15519 6200,12500 "/>
  <path class="fil5" d="M6200 12500l-3500 1487c-787,350 -1356,1050 -1531,1882l-1094 5381 8925 0 -2800 -8750z"/>
  <polygon class="fil6" points="6200,12500 9000,21250 5150,17006 5894,16000 4625,15913 5150,12937 "/>
  <polygon class="fil0" points="9000,13288 9000,21250 11800,12500 "/>
  <polygon class="fil4" points="11100,11275 9000,13288 10400,15519 11800,12500 "/>
  <path class="fil5" d="M11800 12500l3500 1488c788,350 1356,1050 1531,1881l1094 5381 -8925 0 2800 -8750z"/>
  <polygon class="fil6" points="11800,12500 9000,21250 12850,17006 12106,16000 13375,15913 12850,12937 "/>
  <polygon class="fil7" points="10137,15037 9000,13288 7863,15037 8431,15519 7863,17706 9000,21250 10137,17706 9569,15519 "/>
  <g id="_2205713341024">
  </g>
  <g id="_2205713342400">
  </g>
  <g id="_2205713342048">
  </g>
  <g id="_2205713338592">
  </g>
  <g id="_2205713339808">
  </g>
  <g id="_2205713340448">
  </g>
  <g id="_2205713340288">
  </g>
  <g id="_2205713340256">
  </g>
  <g id="_2205713340416">
  </g>
  <g id="_2205713340096">
  </g>
  <g id="_2205713338464">
  </g>
  <g id="_2205713337568">
  </g>
  <g id="_2205713336544">
  </g>
  <g id="_2205713338240">
  </g>
  <g id="_2205713336736">
  </g>
 </g>
</svg>
